# xmcd
#
# Track frame offsets: 
#        183
#        20550
#        42298
#        63795
#        83620
#        97850
#        121285
#        143650
#        166043
#        187880
#        206275
#        228530
#        247525
#
# Disc length: 3464 seconds
#
# Revision: 51
# Processed by: cddbd v1.5.2PL0 Copyright (c) Steve Scherf et al.
# Submitted via: ExactAudioCopyFreeDBPlugin 1.0
#
DISCID=8e0d860d
DTITLE=Whitney Houston - The bodyguard
DYEAR=1992
DGENRE=Blues
TTITLE0=Whitney Houston - I will always love you - 1992
TTITLE1=Whitney Houston - I have nothing - 1992
TTITLE2=Whitney Houston - I'm every woman - 1992
TTITLE3=Whitney Houston - Run for you - 1992
TTITLE4=Whitney Houston - Queen of the night - 1992
TTITLE5=Whitney Houston - Jesus loves me - 1992
TTITLE6=Kenny G. and Aaron Neville - Even If my heart would break - 1992
TTITLE7=Lisa Stansfield - Someday (I m coming back) - 1992
TTITLE8=The Soul System - It s gonna be a lovely day - 1992
TTITLE9=Curtis Stigers - Peace love and understanding - 1992
TTITLE10=Kenny G. - Waiting for you - 1992
TTITLE11=Joe Cocker Featuring Sass Jordan - Trust in me - 1987
TTITLE12=Alan Silvestri - Theme From The Bodyguard - 1992
EXTD=
EXTT0=
EXTT1=
EXTT2=
EXTT3=
EXTT4=
EXTT5=
EXTT6=
EXTT7=
EXTT8=
EXTT9=
EXTT10=
EXTT11=
EXTT12=
PLAYORDER=
